# xmcd
#
# Track frame offsets:
#	150
#	21400
#	41040
#	55837
#
# Disc length: 1094 seconds
#
# Revision: 0
# Processed by: cddbd v1.4PL0 Copyright (c) Steve Scherf et al.
# Submitted via: dBpowerAMP V4.0
#
DISCID=30044404
DTITLE=Trond Granlund - Nobody Ever Killed Billy The Kid
DYEAR=1900
DGENRE=Country
TTITLE0=Nobody Ever Killed Billy The Kid
TTITLE1=Driftin`
TTITLE2=Quit Your Lowdown Ways
TTITLE3=Gonna Ball
EXTD=
EXTT0=
EXTT1=
EXTT2=
EXTT3=
PLAYORDER=
